HIERARCHY
ROOT Hips
{
	OFFSET 0.000000 0.000000 0.000000
	CHANNELS 6 Xposition Yposition Zposition Xrotation Yrotation Zrotation
	JOINT LeftUpLeg_virtual
	{
		OFFSET 0.000000 0.000000 0.000000
		CHANNELS 3 Xrotation Yrotation Zrotation
		JOINT LeftUpLeg
		{
			OFFSET 11.394100 -6.187798 -0.413800
			CHANNELS 3 Xrotation Yrotation Zrotation
			JOINT LeftLeg
			{
				OFFSET 0.430247 -32.302673 3.732800
				CHANNELS 3 Xrotation Yrotation Zrotation
				JOINT LeftFoot
				{
					OFFSET -0.430247 -48.264931 -6.423300
					CHANNELS 3 Xrotation Yrotation Zrotation
					JOINT LeftToeBase
					{
						OFFSET 4.230900 -16.068199 23.438400
						CHANNELS 3 Xrotation Yrotation Zrotation
						JOINT LeftToe_End
						{
							OFFSET 4.510700 0.695400 19.974600
							CHANNELS 3 Xrotation Yrotation Zrotation
							End Site
							{
								OFFSET 0 0 0
							}
						}
					}
				}
			}
		}
	}
	JOINT RightUpLeg_virtual
	{
		OFFSET 0.000000 0.000000 0.000000
		CHANNELS 3 Xrotation Yrotation Zrotation
		JOINT RightUpLeg
		{
			OFFSET -11.333700 -6.187798 -0.413800
			CHANNELS 3 Xrotation Yrotation Zrotation
			JOINT RightLeg
			{
				OFFSET -0.430392 -32.302628 3.733000
				CHANNELS 3 Xrotation Yrotation Zrotation
				JOINT RightFoot
				{
					OFFSET 0.430392 -48.264973 -6.423500
					CHANNELS 3 Xrotation Yrotation Zrotation
					JOINT RightToeBase
					{
						OFFSET -4.230900 -16.068199 23.438400
						CHANNELS 3 Xrotation Yrotation Zrotation
						JOINT RightToe_End
						{
							OFFSET -4.510700 0.695400 19.974600
							CHANNELS 3 Xrotation Yrotation Zrotation
							End Site
							{
								OFFSET 0 0 0
							}
						}
					}
				}
			}
		}
	}
	JOINT Spine_virtual
	{
		OFFSET 0.000000 0.000000 0.000000
		CHANNELS 3 Xrotation Yrotation Zrotation
		JOINT Spine
		{
			OFFSET -0.002400 12.777504 0.315300
			CHANNELS 3 Xrotation Yrotation Zrotation
			JOINT Spine1
			{
				OFFSET -0.002067 5.816869 0.032633
				CHANNELS 3 Xrotation Yrotation Zrotation
				JOINT Spine1_split
				{
					OFFSET -0.002067 5.816869 0.032633
					CHANNELS 3 Xrotation Yrotation Zrotation
					JOINT Spine2
					{
						OFFSET -0.002067 5.816869 0.032633
						CHANNELS 3 Xrotation Yrotation Zrotation
						JOINT Neck_virtual
						{
							OFFSET 0.000000 0.000000 0.000000
							CHANNELS 3 Xrotation Yrotation Zrotation
							JOINT Neck
							{
								OFFSET -0.003700 21.199493 -0.826900
								CHANNELS 3 Xrotation Yrotation Zrotation
								JOINT Head
								{
									OFFSET 0.000000 20.442200 4.834800
									CHANNELS 3 Xrotation Yrotation Zrotation
									JOINT HeadTop_End
									{
										OFFSET 0.000000 34.668396 4.968400
										CHANNELS 3 Xrotation Yrotation Zrotation
										End Site
										{
											OFFSET 0 0 0
										}
									}
								}
							}
						}
						JOINT LeftShoulder_virtual
						{
							OFFSET 0.000000 0.000000 0.000000
							CHANNELS 3 Xrotation Yrotation Zrotation
							JOINT LeftShoulder
							{
								OFFSET 3.288150 8.794197 -1.372250
								CHANNELS 3 Xrotation Yrotation Zrotation
								JOINT LeftShoulder_split
								{
									OFFSET 3.288150 8.794197 -1.372250
									CHANNELS 3 Xrotation Yrotation Zrotation
									JOINT LeftArm
									{
										OFFSET 11.953299 -2.279007 -0.146200
										CHANNELS 3 Xrotation Yrotation Zrotation
										JOINT LeftForeArm
										{
											OFFSET 18.448900 0.000000 0.000000
											CHANNELS 3 Xrotation Yrotation Zrotation
											JOINT LeftHand
											{
												OFFSET 29.527798 0.000000 0.000000
												CHANNELS 3 Xrotation Yrotation Zrotation
												End Site
												{
													OFFSET 0 0 0
												}
											}
										}
									}
								}
							}
						}
						JOINT RightShoulder_virtual
						{
							OFFSET 0.000000 0.000000 0.000000
							CHANNELS 3 Xrotation Yrotation Zrotation
							JOINT RightShoulder
							{
								OFFSET -3.249400 8.794197 -1.372250
								CHANNELS 3 Xrotation Yrotation Zrotation
								JOINT RightShoulder_split
								{
									OFFSET -3.249400 8.794197 -1.372250
									CHANNELS 3 Xrotation Yrotation Zrotation
									JOINT RightArm
									{
										OFFSET -11.953299 -2.279007 -0.146200
										CHANNELS 3 Xrotation Yrotation Zrotation
										JOINT RightForeArm
										{
											OFFSET -18.448900 0.000000 0.000000
											CHANNELS 3 Xrotation Yrotation Zrotation
											JOINT RightHand
											{
												OFFSET -29.527802 0.000000 0.000000
												CHANNELS 3 Xrotation Yrotation Zrotation
												End Site
												{
													OFFSET 0 0 0
												}
											}
										}
									}
								}
							}
						}
					}
				}
			}
		}
	}
}
MOTION
Frames: 4
Frame Time: 0.03333333
8.451800 89.160095 -11.591072 0.000000 0.000000 0.000000 43.258187 -79.958634 49.653744 -5.200143 31.334090 10.255609 26.243795 -10.268646 0.270342 -18.574894 21.436994 -18.120871 -3.027093 -5.439953 -6.824916 0.000000 0.000000 0.000000 47.021324 -79.464381 52.498770 -57.243375 22.352438 -3.491802 42.884572 -3.029697 0.211353 -0.850070 10.244565 24.893813 6.317721 8.572774 -24.876609 0.000000 0.000000 0.000000 33.348703 -75.158842 39.078422 25.357533 -8.157377 0.729415 18.935139 -0.630145 0.847981 0.112423 0.712499 -0.146172 0.000000 0.000000 0.000000 18.255566 1.235905 0.426644 -2.089896 -0.433711 6.386682 -23.229337 -45.217813 -0.508654 0.000000 0.000000 0.000000 20.446373 -1.666547 0.880633 -0.181991 4.901859 16.375136 -1.934190 -4.457227 0.028195 7.266619 -0.995785 -67.462919 44.649346 -66.806941 38.024264 0.000000 0.000000 0.000000 20.563683 -0.279564 1.822854 7.341992 12.926924 6.033792 5.286673 0.047707 9.039897 -52.283940 32.759520 62.153765 -135.129132 73.775879 125.701039 0.000000 0.000000 0.000000 
8.658451 88.981453 -11.764751 0.000000 0.000000 0.000000 36.975205 -79.177438 43.255352 -6.846780 31.185548 11.649753 26.901648 -11.648920 0.602459 -17.944722 18.350775 -17.516589 -4.393628 -5.396162 -7.925061 0.000000 0.000000 0.000000 39.523299 -78.715102 45.030539 -56.251307 21.960185 -5.663352 45.481670 -3.187900 0.091449 -1.421070 7.868860 26.009746 6.389922 8.202072 -23.812845 0.000000 0.000000 0.000000 30.578245 -74.585748 35.986122 24.175852 -7.101157 1.523083 18.676765 -1.742461 0.596916 0.067767 0.663723 -0.123394 0.000000 0.000000 0.000000 18.368947 -0.002051 -0.019858 -0.200910 0.047149 4.666472 -21.894144 -37.602893 1.171117 0.000000 0.000000 0.000000 20.117267 -2.936274 0.717587 -0.439364 5.623104 16.052184 -0.448120 -5.990747 0.836203 1.364067 5.738905 -63.455381 48.669855 -71.263113 41.096162 0.000000 0.000000 0.000000 20.060803 -1.720069 1.267493 7.512444 13.368900 6.150344 3.751501 0.526353 8.090719 -46.416477 28.005965 57.393861 -146.715291 74.818657 138.414740 0.000000 0.000000 0.000000 
8.819823 89.105476 -12.238182 0.000000 0.000000 0.000000 29.146794 -77.697794 35.148977 -9.376540 30.115762 13.598738 27.625904 -13.359397 1.199661 -15.921005 14.124719 -17.810246 -6.337367 -5.261232 -8.566180 0.000000 0.000000 0.000000 31.778063 -77.375457 37.103971 -54.629045 21.234010 -8.192073 47.307540 -2.805450 -0.206993 -1.681846 5.479273 28.379989 7.155184 8.130556 -23.612068 0.000000 0.000000 0.000000 26.916660 -73.366361 31.725696 22.390420 -5.371775 3.094823 18.265350 -3.025552 0.141103 -0.007297 0.581195 -0.145345 0.000000 0.000000 0.000000 18.308698 -1.491167 -0.532941 1.916408 1.298325 2.108545 -21.271291 -28.609513 1.256399 0.000000 0.000000 0.000000 19.671153 -4.379071 0.287215 -0.529071 6.104633 15.378335 1.412347 -6.508187 1.402679 -4.535494 8.621257 -59.536922 61.597235 -77.011967 53.189784 0.000000 0.000000 0.000000 19.585578 -3.334238 0.477855 7.733150 14.247126 6.054594 1.097397 0.330244 7.585007 -41.861157 24.835307 54.918669 -156.726627 75.244055 149.614242 0.000000 0.000000 0.000000 
8.930795 89.457825 -12.668915 0.000000 0.000000 0.000000 22.120037 -75.440081 27.691790 -12.565356 28.275397 15.723049 28.380174 -14.608682 1.877777 -13.052743 9.397570 -18.200036 -8.353549 -5.120634 -8.552796 0.000000 0.000000 0.000000 25.462325 -75.478850 30.413241 -51.858604 19.934390 -10.641274 47.837207 -2.163284 -0.736625 -2.455966 2.812467 31.194574 8.460840 8.356398 -23.850486 0.000000 0.000000 0.000000 23.364083 -71.690615 27.361099 20.051933 -3.111567 4.965089 17.664679 -4.199746 -0.538268 -0.144606 0.393512 -0.189253 0.000000 0.000000 0.000000 17.978678 -2.932593 -1.172220 4.363411 2.953422 -0.660647 -20.761424 -19.127982 0.585363 0.000000 0.000000 0.000000 19.115319 -5.709510 -0.447052 -0.373490 6.061071 14.177575 2.464253 -5.950410 1.407326 -8.970189 7.211042 -56.499284 94.896333 -81.153466 85.832426 0.000000 0.000000 0.000000 19.211010 -4.836780 -0.493674 7.828849 15.286293 5.699437 -2.189537 -0.650030 7.834259 -38.298336 22.991453 53.841671 -162.522029 75.034539 156.518142 0.000000 0.000000 0.000000 
